<?xml version="1.0" encoding="UTF-8" standalone="no"?>
<svg
   version="1.1"
   id="svg1"
   width="480.60284"
   height="480.06909"
   viewBox="0 0 480.60284 480.06909"
   xmlns="http://www.w3.org/2000/svg">
  <defs
     id="defs1" />
  <g
     id="g1"
     transform="translate(-14.213642,-16.603355)">
    <g
       id="g6"
       transform="translate(-1.4833275,0.83605579)">
      <path
         style="fill:#e0e5f5"
         d="m 230.5,494.40029 c -52.15765,-5.10896 -94.5271,-14.3522 -126.18707,-27.52873 -14.324261,-5.96159 -21.83451,-9.95446 -33.90465,-18.0256 l -10.872493,-7.27028 -9.074871,-9.03784 C 31.369569,413.5244 20.520805,390.87819 16.963023,362.6128 l -1.181871,-9.38957 0.457386,-15.36161 0.457385,-15.36162 2.697073,-9 C 23.284766,300.51336 34.853457,277.68499 50.052483,253 96.050988,178.29305 108.15621,150.49513 110.94143,113.17721 l 0.85534,-11.46034 -0.84376,-9.608433 C 109.45922,75.097457 104.27688,63.45791 94.704422,55.613996 89.17896,51.086295 83.301845,48.997302 76.124273,49.009769 L 70.5,49.019538 65,51.568606 C 59.090273,54.307569 52.709193,59.835054 50.417579,64.20034 49.63791,65.685527 49,69.10648 49,71.802457 v 4.901777 l 2.273797,3.374086 c 1.250588,1.855748 3.838088,4.412454 5.75,5.681569 1.911911,1.269116 4.263703,2.96292 5.226203,3.76401 L 64,90.980425 v 3.861904 3.861905 l -2.261415,3.355716 c -1.243778,1.84564 -4.20376,4.83719 -6.577739,6.64788 L 50.844521,112 h -4.462098 -4.462099 l -3.717006,-1.89627 C 29.893556,105.8644 21.132894,93.936973 17.611524,82.068499 L 16,76.636998 16.021092,67.068499 16.042184,57.5 18.358126,51 C 21.355574,42.587261 23.818072,38.66868 30.101784,32.312284 L 35.23018,27.124567 42.36509,23.62891 C 46.28929,21.706298 52.425,19.322303 56,18.331142 l 6.5,-1.80211 15.5,0.052 15.5,0.052 8.95066,2.737251 c 4.92286,1.505488 12.57286,4.611988 17,6.903334 L 127.5,30.4397 l 9.10119,9.030148 9.10118,9.030148 4.18924,7.126218 C 161.41776,75.233067 167.98724,100.31582 167.99598,124.75 L 168,136 h 8 8 V 116 96 h 8 8 v 20 20 h 8 8 V 116 96 h 8 8 v 20 20 h 8 8 V 116 96 h 8 8 v 20 20 h 8 8 V 116 96 h 8 8 v 20 20 h 8 8 V 116 96 h 8 8 v 20 20 l 7.75,-0.007 7.75,-0.007 0.30432,-11.24258 c 0.61017,-22.54184 4.76997,-41.647643 12.75735,-58.594088 5.70435,-12.102655 11.5241,-20.163239 20.83781,-28.861218 l 7.51916,-7.02207 7.84003,-4.078828 c 4.31201,-2.243356 11.86781,-5.310591 16.79067,-6.816079 l 8.95066,-2.737251 15.5,-0.052 15.5,-0.052 6.5,1.816517 c 10.08689,2.818925 18.45099,7.251706 24.83452,13.16173 l 5.84205,5.408711 3.28346,6.160397 c 1.8059,3.388218 3.89833,8.469621 4.64984,11.292005 1.60993,6.046239 1.7704,19.269153 0.31072,25.603802 -2.63514,11.435878 -12.70212,25.835052 -21.03395,30.085632 L 470.07968,112 h -4.4621 -4.4621 l -4.31633,-3.29217 c -2.37397,-1.81069 -5.33396,-4.80224 -6.57774,-6.64788 L 448,98.704234 v -3.861905 -3.861904 l 1.75,-1.456526 c 0.9625,-0.80109 3.31429,-2.494894 5.2262,-3.76401 1.91192,-1.269115 4.49942,-3.825821 5.75,-5.681569 L 463,76.704234 v -4.287018 c 0,-2.357859 -0.47679,-5.553812 -1.05954,-7.102116 -1.55343,-4.127321 -7.72609,-10.122534 -13.42097,-13.035154 l -4.98052,-2.547258 -6.13238,-0.492249 -6.13238,-0.492249 -5.22287,1.734759 -5.22287,1.734759 -5.76151,5.641146 c -8.91125,8.725101 -12.55806,17.455439 -14.11984,33.802468 l -0.97081,10.161318 1.02125,11.64955 c 2.81666,32.1299 15.42568,64.74461 41.76413,108.02781 6.02429,9.9 16.03138,26.325 22.23797,36.5 13.27198,21.75789 23.79879,42.92535 27.60077,55.5 l 2.72118,9 0.43574,16.53129 0.43573,16.53128 -2.07879,12.23951 c -4.6689,27.48964 -14.53076,46.91376 -33.16079,65.31415 l -8.72376,8.61624 -10.75526,7.19189 c -11.95565,7.99458 -19.49091,11.99716 -33.78741,17.9472 -32.85616,13.67437 -78.09219,23.25456 -132.68707,28.10079 -14.69212,1.30417 -26.95477,1.14653 -44.5,-0.57206 z M 248,291.5 V 160 h -8 -8 v 130.42804 130.42805 l 5.75,0.64847 c 3.1625,0.35666 6.2,0.80352 6.75,0.99301 0.55,0.18949 1.5625,0.38006 2.25,0.42348 L 248,423 Z m 26.25,129.98063 5.75,-0.62454 V 290.42804 160 h -8 -8 V 291.51905 423.0381 l 2.25,-0.46646 c 1.2375,-0.25656 4.8375,-0.74751 8,-1.09101 z M 216,289 V 160 h -8 -8 v 127.92373 127.92372 l 5.25,0.95748 c 2.8875,0.52661 6.4875,1.01094 8,1.07627 L 216,418 Z M 305.66809,416.89735 312,415.79469 V 287.89735 160 h -8 -8 v 129 129 h 1.66809 c 0.91744,0 4.51744,-0.49619 8,-1.10265 z M 184,286 V 160 h -8.95469 -8.95468 l -0.64651,3.75 c -4.79854,27.83359 -22.00904,68.15614 -47.27039,110.75 -14.28661,24.08904 -19.094331,35.25122 -21.231247,49.29302 l -1.10987,7.29302 1.120542,10.40753 c 3.834375,35.61345 23.182155,52.35438 80.046845,69.26162 1.925,0.57235 4.2875,1.08657 5.25,1.14272 L 184,412 Z m 165.23861,120.32938 c 16.89452,-5.41028 33.36353,-13.52801 43.03092,-21.21033 l 7.30095,-5.80179 4.73587,-6.9312 c 6.01264,-8.7998 9.41946,-18.59817 10.67444,-30.70078 l 0.98893,-9.53693 -0.94595,-7.32417 c -1.94453,-15.05579 -4.84397,-21.75953 -23.44246,-54.20077 -15.80973,-27.57683 -20.43624,-36.55749 -27.96643,-54.28656 -7.21165,-16.97909 -12.92617,-33.76244 -15.73219,-46.20492 L 345.59774,160 H 336.79887 328 v 126.04531 126.04532 l 3.75,-0.68081 c 2.0625,-0.37444 9.93237,-2.66063 17.48861,-5.08044 z"
         id="path10" />
      <path
         style="fill:#a9abb7"
         d="M 238.5,494.88663 C 158.83961,487.42442 107.59144,473.26524 70.259811,448.40412 l -11.285772,-7.5158 -8.23702,-8.2473 C 31.887539,413.76802 21.652431,392.60853 17.420714,363.76475 L 15.768044,352.5 16.258358,338 l 0.490313,-14.5 2.568795,-8.56887 c 5.528254,-18.44088 12.946531,-32.70852 39.155987,-75.30901 15.892603,-25.83162 27.891144,-46.96641 33.18909,-58.46081 10.859247,-23.56016 17.364037,-45.64717 19.342187,-65.6763 L 112.18841,103.5 111.51999,95 C 110.18326,78.001342 106.51914,67.773132 98.74496,59.33914 93.519866,53.670582 87.755635,50.28118 81.238486,49.045228 l -5.110345,-0.969157 -5.81407,1.502456 c -3.197739,0.82635 -8.149929,3.046141 -11.004866,4.932869 l -5.190795,3.430414 -2.751513,4.695101 -2.751512,4.695101 v 4.837936 4.837936 l 2.0348,2.746058 c 1.119141,1.510332 4.631282,4.728832 7.804759,7.152222 l 5.769957,4.406164 -0.479318,4.252498 C 63.13989,100.93852 59.954436,105.43876 54.15146,109.1189 L 49.608439,112 H 46.272101 C 35.530809,112 23.138654,99.087126 18.100536,82.644665 L 16,75.78933 v -8.213164 -8.213164 l 1.595379,-5.431501 C 20.104568,45.388917 24.788407,37.49023 30.60949,31.984893 l 5.359404,-5.068702 7.265553,-3.426504 C 53.303972,18.740803 60.76034,16.943155 73,16.313542 l 10.5,-0.540124 9.308028,1.623228 c 24.494212,4.27155 43.692382,17.194275 56.809442,38.239738 11.23034,18.018351 18.36232,45.229466 18.37663,70.113616 L 168,136 h 88 88 v -10.62166 c 0,-25.773926 7.3259,-52.89803 19.19973,-71.086917 13.37996,-20.496039 31.88749,-32.691146 55.99224,-36.894777 L 428.5,15.773418 439,16.313542 c 17.64174,0.907498 31.89821,6.148691 42.08262,15.47109 l 5.58263,5.110106 3.13618,5.884086 c 10.41309,19.536953 7.31959,44.486673 -7.47727,60.305706 -10.82988,11.57802 -22.23636,11.60816 -31.02765,0.082 L 448,98.844521 v -3.851567 -3.851568 l 5.65751,-4.320693 c 3.11163,-2.376381 6.57316,-5.556419 7.6923,-7.066751 l 2.03481,-2.746058 v -4.837936 -4.837936 l -2.71577,-4.634106 c -2.9256,-4.992154 -8.50563,-9.311873 -15.63854,-12.106389 l -4.46969,-1.751127 -5.91487,0.02829 -5.91487,0.02829 -5.23998,2.563681 c -9.73823,4.764473 -17.45451,15.23196 -21.09088,28.610747 L 400.65271,86.5 l -0.0136,16 -0.0136,16 2.24611,11.39995 c 6.21679,31.55272 17.5083,55.78032 52.47838,112.60005 24.56304,39.91027 33.1266,56.71312 38.22368,75 l 1.67238,6 0.49071,13.17932 0.49072,13.17933 -1.1915,10.24888 c -5.47627,47.10518 -29.63172,78.97989 -77.1816,101.84621 C 383.99041,478.23865 337.61578,488.94918 277,494.485 c -17.85685,1.6308 -24.62469,1.7014 -38.5,0.40163 z m 45.77281,-74.50943 c 48.86592,-6.73522 82.12887,-16.85699 103.14801,-31.38751 17.01565,-11.76292 25.21443,-25.5769 27.70278,-46.67596 l 1.1355,-9.62809 -1.17727,-8.41552 C 413.03051,309.6066 408.77254,299.71961 392.57101,272 368.47482,230.77322 352.53305,193.60429 347.00033,165.75 L 345.8582,160 H 255.94815 166.0381 l -0.45724,2.25 c -6.44776,31.7282 -22.98243,71.01494 -46.19064,109.75 -10.50985,17.54119 -18.69239,34.22324 -21.091502,43 l -1.77676,6.5 0.05796,12.5 0.05796,12.5 1.697843,6.5 c 8.107549,31.03883 36.959809,49.50606 96.664279,61.87112 11.99936,2.48512 40.06818,6.80772 55,8.47 5.1649,0.57499 14.37709,-0.22169 34.27281,-2.96392 z"
         id="path9" />
      <path
         style="fill:#be8b6c"
         d="M 247.5,495.42232 C 245.85,495.2005 238.875,494.52677 232,493.92516 179.07332,489.29367 132.2974,478.76301 98.719614,463.91975 79.621346,455.47725 65.600919,446.39075 52.586483,434.02132 34.631808,416.95649 24.265408,397.8378 19.025454,372.12491 l -2.062709,-10.12189 -0.632888,-13.91276 -0.632887,-13.91277 1.256053,-7.78622 C 20.073911,307.045 29.340052,287.20919 53.339305,248.5 93.750631,183.31924 107.38148,152.14592 111.04239,116.53486 l 1.23005,-11.96514 -0.62533,-9.534859 C 110.95014,84.40748 108.99222,75.750522 105.75891,69 102.80504,62.832904 94.534431,54.31062 88.502039,51.217996 L 83.5,48.653602 76.980375,48.576801 70.46075,48.5 l -6.688401,3.291999 -6.688401,3.291998 -3.423733,3.999862 c -1.883054,2.199925 -3.964454,5.931128 -4.625336,8.291564 l -1.201601,4.291701 1.107762,4.113916 c 1.181047,4.386071 5.44522,9.333102 10.135435,11.758507 5.490093,2.839037 6.293884,7.446397 2.444891,14.014203 l -2.478634,4.22947 -4.69281,3.10839 L 49.657111,112 46.078555,111.99062 42.5,111.98123 37.368576,109.03811 C 31.314111,105.56558 26.401462,100.10661 22.146181,92.122885 14.111463,77.04821 13.926196,59.927282 21.626856,44.130963 L 24.371935,38.5 29.935968,32.982467 C 39.999409,23.003128 54.303264,17.476308 73,16.343096 l 9.5,-0.575797 9.346303,1.632893 C 120.78965,22.456885 140.66516,37.459645 154.24366,64.5 c 4.44121,8.844255 9.26247,23.858676 11.48814,35.77644 l 1.72251,9.22356 -0.009,22 -0.009,22 -2.70006,12.63389 c -6.19455,28.98509 -23.75493,69.85163 -45.34268,105.52156 -10.13421,16.74499 -17.85618,31.93684 -20.438031,40.20881 L 96.883641,318.5 96.328534,329 l -0.555108,10.5 1.540979,8.83153 1.540978,8.83152 3.436897,7.23714 3.43691,7.23714 6.35418,6.79264 c 7.29937,7.80305 13.89391,12.52997 25.89404,18.56068 22.66208,11.3889 59.45538,20.42519 103.99703,25.54125 L 256,424.14288 270.02556,422.5319 C 302.99032,418.74557 337.8643,411.43247 357,404.2933 c 33.43983,-12.47576 50.17766,-27.6707 56.59701,-51.37988 l 1.73645,-6.41342 0.058,-12.5 0.058,-12.5 -1.78861,-6.5 c -2.43762,-8.85858 -10.46837,-25.24536 -22.05337,-45 -22.85044,-38.96436 -37.5872,-73.33631 -44.27203,-103.25986 L 344.60104,154.5 l -0.01,-23.5 -0.01,-23.5 2.274,-10.5 c 8.48046,-39.157803 26.87103,-64.012947 55.27159,-74.700419 16.02409,-6.030059 31.32424,-7.570288 47.38279,-4.769911 22.24911,3.879921 37.33275,15.298643 43.60406,33.009464 l 2.11071,5.960866 0.49086,8 0.49086,8 -1.62284,6.896973 c -3.03175,12.884765 -10.76334,24.370977 -19.95203,29.641137 l -5.13142,2.94312 -3.41214,0.009 -3.41214,0.009 -4.41546,-2.58763 -4.41545,-2.58763 -2.92241,-4.60815 c -4.7719,-7.524504 -4.04107,-10.703388 3.63155,-15.796181 l 5.32188,-3.532467 2.06209,-4.259696 C 463.07206,76.285414 464,73.550336 464,72.550295 c 0,-3.891062 -2.4719,-9.741602 -5.71838,-13.534384 l -3.39726,-3.968936 -6.69218,-3.213441 -6.69218,-3.213441 -6.5,0.0117 -6.5,0.0117 -5.00204,2.569448 c -6.56738,3.373531 -14.98948,12.388437 -18.05979,19.330956 -1.35001,3.052606 -3.17985,9.691522 -4.06633,14.753147 L 399.76008,94.5 l 0.56881,13.0919 c 0.69508,15.99833 3.36083,29.649 9.25803,47.4081 l 4.48289,13.5 8.3906,17 c 7.89506,15.996 13.92741,26.38825 41.50332,71.5 13.51308,22.10619 24.97798,45.14481 28.61421,57.5 l 2.64877,9 0.48942,13 0.48943,13 -1.59524,12.11212 C 485.84796,428.1417 439.22014,465.94809 342,485.35035 c -29.57382,5.90207 -83.09011,11.60592 -94.5,10.07197 z"
         id="path8" />
      <path
         style="fill:#ba7650"
         d="M 238.5,494.3657 C 132.00738,485.0654 65.818232,459.01295 36.381905,414.8108 22.992584,394.70514 16.67586,371.23552 16.650685,341.5 l -0.0127,-15 2.159496,-8 c 5.63735,-20.88394 9.821063,-28.90172 46.701489,-89.5 25.452208,-41.82056 37.49529,-68.61481 43.65224,-97.12039 L 111.39311,121.5 111.44655,103 111.5,84.5 109.6618,78.542711 C 105.69378,65.683005 98.236456,55.815279 88.653852,50.744451 L 84.5,48.546356 77,48.533113 69.5,48.519869 64,51.329264 c -6.68102,3.412658 -11.498094,7.856239 -14.197914,13.097075 l -2.022657,3.926339 0.459442,4.781504 0.459442,4.781505 2.654498,3.480225 c 1.459974,1.914125 4.426431,4.476108 6.592128,5.693298 l 3.93763,2.213072 1.155676,2.79005 1.155677,2.79005 -1.112562,3.371095 c -1.275699,3.865403 -7.018181,9.738563 -11.952842,12.224843 l -3.371481,1.69868 -3.628519,-0.64513 c -1.995685,-0.35483 -5.971324,-2.23589 -8.834755,-4.18014 l -5.206236,-3.535 -4.492304,-6.658366 C 20.191127,89.148567 16.987425,79.959104 16.301378,70.5 l -0.507694,-7 1.622852,-6.896973 c 3.376228,-14.348658 11.676101,-25.266826 24.172776,-31.79837 8.841916,-4.621339 15.742275,-6.633554 26.643981,-7.769658 l 8.733294,-0.910126 9.6811,0.990446 9.6811,0.990446 8.752803,2.814748 c 11.8108,3.798141 20.67933,8.947756 29.14597,16.923937 8.70794,8.203513 13.81566,15.016283 19.26539,25.696548 7.7044,15.098906 11.76911,30.902217 13.68553,53.208352 l 1.22423,14.24934 -1.18457,13.75066 c -1.88162,21.84221 -5.64059,36.5179 -16.32881,63.75065 -5.97603,15.22645 -21.01622,45.15706 -31.40637,62.5 -10.40093,17.36093 -16.88707,30.02026 -20.238235,39.5 l -2.474558,7 -0.513098,11.30693 -0.513098,11.30694 1.231894,7.69306 c 5.402385,33.73739 33.898305,53.7475 95.524135,67.07797 16.14107,3.49152 45.036,7.83133 58.05405,8.7193 l 8.94595,0.6102 17,-2.1776 c 58.94611,-7.55066 96.68933,-19.74278 118.77877,-38.36887 13.34586,-11.25339 20.74636,-29.30651 20.70387,-50.5059 -0.0357,-17.79429 -4.26569,-29.02889 -23.29739,-61.87599 C 363.08639,220.20091 349.3574,185.05116 344.92206,149 l -1.16877,-9.5 0.58439,-14.5 c 0.32141,-7.975 1.26736,-18.55 2.1021,-23.5 8.45649,-50.147034 36.4584,-80.041319 79.05675,-84.399435 l 9.68152,-0.990489 8.66097,0.966043 c 16.32317,1.820682 29.12469,7.217984 38.11894,16.071489 l 5.00046,4.922198 3.5444,7.369116 3.5444,7.369117 1.1263,7.84598 1.12629,7.845981 -1.2316,7.198682 c -1.36857,7.999282 -6.12782,18.710546 -11.00856,24.776098 -4.34013,5.39371 -11.38561,10.23555 -16.03769,11.02151 l -3.84059,0.64886 -3.34068,-1.68276 c -4.90646,-2.47146 -10.64932,-8.35251 -11.92205,-12.208913 l -1.11256,-3.371095 1.15567,-2.79005 1.15568,-2.79005 3.93763,-2.213072 c 5.19106,-2.917537 8.99706,-8.058917 9.66783,-13.059892 l 0.54263,-4.045553 -1.64106,-4.297034 C 460.57006,60.307345 455.13221,54.968081 448,51.327387 l -5.5,-2.807518 -7.5,0.01324 -7.5,0.01324 -4.3887,2.317908 c -2.41379,1.274849 -6.60188,4.531081 -9.30687,7.23607 l -4.91816,4.918162 -2.96442,6.334816 c -1.63043,3.484149 -3.67437,9.667488 -4.54209,13.740752 L 399.8021,90.5 l 0.53563,16.5 0.53564,16.5 2.05622,9.36788 c 6.16525,28.08814 17.73328,53.58525 43.38826,95.63212 25.31865,41.49565 30.04695,49.58024 35.67599,61 7.37863,14.96918 11.53732,27.37187 13.07692,39 l 1.19162,9 -0.64209,10.63726 c -3.6128,59.85155 -32.30354,96.54647 -94.11345,120.36933 -32.28666,12.44397 -77.64098,21.70654 -124.50684,25.42766 -7.425,0.58954 -15.525,1.24219 -18,1.45033 -2.475,0.20815 -11.7,-0.25035 -20.5,-1.01888 z"
         id="path7" />
      <path
         style="fill:#a56942"
         d="M 240.5,494.40973 C 183.60393,489.45399 138.53228,480.09162 105,466.2634 78.814821,455.46502 56.98131,440.47818 43.59125,424.11153 27.192348,404.06719 19.190568,382.50977 16.907448,352.22329 L 15.8883,338.70389 16.990953,329.60195 18.093606,320.5 21.535563,310.20064 C 26.221222,296.17976 35.148639,278.99813 52.555471,250.5 c 8.062641,-13.2 14.730342,-24.08183 14.817115,-24.18184 0.08677,-0.10002 3.975938,4.59429 8.64259,10.43178 4.666653,5.8375 15.293053,17.61933 23.614222,26.18184 L 114.7588,278.5 l -4.01292,7 c -6.13957,10.70965 -10.73777,21.22454 -12.900465,29.5 l -1.960042,7.5 -0.01069,10.5 -0.01069,10.5 1.554086,7.5 c 1.882588,9.08535 7.050071,19.80517 12.688461,26.32191 18.88205,21.82347 60.53359,36.53075 127.7352,45.10365 15.36664,1.96033 20.52602,1.96645 36.18812,0.043 64.58771,-7.93211 109.33537,-23.55316 127.17622,-44.39618 L 404.69186,374 l 2.40407,-0.003 c 4.86711,-0.005 34.29046,-5.03124 47.15084,-8.05416 7.28928,-1.71339 19.44073,-5.03631 27.00323,-7.38427 l 13.75,-4.26901 -0.004,1.60502 c -0.002,0.88275 -0.69101,5.88001 -1.53066,11.10501 -4.27863,26.62524 -14.62382,47.28167 -32.63084,65.15462 l -8.71954,8.65461 -10.70568,7.15875 c -21.51384,14.38601 -44.66194,23.92935 -78.87038,32.51615 -23.72455,5.95519 -65.7273,12.25064 -93.53888,14.01978 -5.225,0.33237 -10.4,0.74111 -11.5,0.90832 -1.1,0.16721 -8.75,-0.28392 -17,-1.0025 z"
         id="path6" />
    </g>
  </g>
</svg>
